<svg width="128" height="38" viewBox="0 0 160 48" xmlns="http://www.w3.org/2000/svg">
  <path d="M91.4 40.7c-10.8 8-26.5 12.2-40 12.2-18.9 0-36-7-48.9-18.6-.8-.7-.1-1.7.9-1.1 12.1 7 27 11.3 42.4 11.3 10.4 0 21.8-2.2 32.3-6.7 1.6-.8 2.9.9 1.3 2.9z" fill="#ffffff"/>
  <path d="M95.7 35.7c-1.5-1.7-9.4-.8-13-.4-1.1.1-1.3-1-.3-1.8 6.3-4.5 16.8-3.2 18-.2 1.2 3.1-3.2 14-10.7 19.8-.8.7-1.5.3-1.2-.6 1.1-3.4 3.7-10.9 7.2-16.8.3-.7-.5-1.5-2-1z" fill="#ffffff"/>
  <path d="M85.9 7.3V3.2c0-.8.5-1.3 1.3-1.3h23.2c.7 0 1.3.5 1.3 1.2v3.5c0 .7-.6 1.6-1.7 3.1L99.1 24c3.9 0 7.9.5 10.9 2.7.7.4 1 1.2 1 1.9v4.4c0 .7-.7 1.5-1.5 1.1-6.3-3.3-14.7-3.7-21.6 0-.7.4-1.5-.4-1.5-1.1v-4.2c0-.8 0-2.1.8-3.3l12.2-17.5H87.2c-.8 0-1.3-.6-1.3-1.3zM19.9 26.3h-7.1c-.7 0-1.2-.5-1.3-1.1V3.2c0-.7.6-1.2 1.3-1.2h6.6c.7 0 1.2.5 1.3 1.1v2.9h.1c1.7-4.5 4.9-6.7 9.3-6.7 4.4 0 7.2 2.1 9.1 6.7 1.7-4.5 5.6-6.7 9.8-6.7 3 0 6.2 1.2 8.2 4 2.2 3.1 1.8 7.5 1.8 11.5v23c0 .7-.6 1.2-1.3 1.2h-7C46 39 45.4 38.5 45.4 37.8V18.2c0-1.4.1-5-.2-6.4-.5-2.3-2-2.9-3.9-2.9-1.6 0-3.3 1.1-4 2.8s-.6 4.6-.6 6.4v19.7c0 .7-.6 1.2-1.3 1.2H28.3c-.7 0-1.3-.5-1.3-1.2V18.2c0-3.8.6-9.3-4.1-9.3-4.8 0-4.6 5.4-4.6 9.3v19.7c-.1.6-.7 1.1-1.4 1.1zM136.5 1.9c10.5 0 16.2 9 16.2 20.5 0 11.1-6.3 19.9-16.2 19.9-10.3 0-15.9-9-15.9-20.3-.1-11.3 5.7-20.1 15.9-20.1zm0 7.4c-5.2 0-5.5 7.1-5.5 11.6s-.1 14 5.5 14c5.5 0 5.8-7.7 5.8-12.4 0-3.1-.1-6.8-1.1-9.7-.8-2.5-2.5-3.5-4.7-3.5zM151.5 26.3h-7c-.7 0-1.3-.5-1.3-1.2V3.1c.1-.7.7-1.2 1.4-1.2h6.5c.6 0 1.1.4 1.3 1v3.7h.1c2-4.9 4.7-7.2 9.5-7.2 3.1 0 6.2 1.1 8.2 4.2 1.8 2.9 1.8 7.7 1.8 11.2v22.7c-.1.7-.7 1.2-1.4 1.2h-7c-.7 0-1.2-.5-1.3-1.2V18c0-3.7.4-9.2-4.2-9.2-1.6 0-3.1 1.1-3.9 2.7-.9 2.1-.9 4.2-.9 6.5v19.7c-.1.6-.7 1.1-1.4 1.1zM68.4 26.1c-.5-.7-.5-1.5 0-2.2l19.5-18.3c.6-.7 1.7-.7 2.3 0l1.9 1.8c.6.6.7 1.6.1 2.3L77.6 26.1c-.6.7-1.6.7-2.2 0l-7-7.4z" fill="#ffffff"/>
</svg> 