<svg width="35" height="42" viewBox="0 0 35 42" xmlns="http://www.w3.org/2000/svg">
  <path d="M28.9,14.1c-0.1-1.4,0.5-2.8,1.4-3.8c0.9-1,2.2-1.7,3.6-1.9c0.2,2.8-0.8,5.5-3.1,7.1c-0.1,0.1-0.3,0.2-0.4,0.3c-0.5,0.3-1,0.5-1.5,0.5c-0.1,0-0.2,0-0.3,0c0-0.1,0-0.2,0-0.3C28.7,15.4,28.8,14.7,28.9,14.1z" fill="#ffffff"/>
  <path d="M34.3,29.4c-0.4,1.3-1,2.5-1.7,3.6c-1,1.6-2,3.1-3.6,3.1c-1.6,0-2.1-0.9-3.9-0.9c-1.8,0-2.4,0.9-3.9,1c-1.5,0-2.7-1.5-3.7-3.1c-2.5-3.6-4.4-10.3-1.8-14.8c1.3-2.2,3.6-3.6,6.1-3.7c1.9,0,3.7,1.3,4.9,1.3c1.2,0,3.4-1.6,5.7-1.3c1,0,3.7,0.4,5.5,3c-0.1,0.1-3.3,1.9-3.3,5.7C34.7,26.5,34.9,28,34.3,29.4z" fill="#ffffff"/>
  <path d="M17.5,8.9c1.1-1.3,1.9-3.1,1.6-4.9c-1.6,0.1-3.1,0.9-4.2,2.2c-1.1,1.3-1.8,3-1.6,4.8C15,11,16.5,10.2,17.5,8.9z" fill="#ffffff"/>
</svg> 