<svg width="128" height="38" viewBox="0 0 200 50" xmlns="http://www.w3.org/2000/svg">
  <path d="M31.5,15.6c-1.1-1-2.5-1.6-4.2-1.6c-1.9,0-3.4,0.8-4.5,2c-1,1.3-1.6,2.9-1.6,4.6c0,2.6,1.4,4.8,3.5,6c1,0.6,2.2,0.9,3.5,0.9c1.3,0,2.5-0.3,3.5-0.9c2.1-1.2,3.5-3.4,3.5-6c0-0.4,0-0.8-0.1-1.2c-0.3-1.8-1.3-3.3-2.6-4.3c-0.3-0.3-0.6-0.5-1-0.7L31.5,15.6z" fill="#ffffff"/>
  <path d="M35.2,20.6c0-0.4,0-0.8-0.1-1.2c-0.3-1.8-1.3-3.3-2.6-4.3c-0.3-0.3-0.6-0.5-1-0.7c0.4,0.3,0.8,0.7,1.1,1.1c0.8,1,1.3,2.2,1.4,3.5c0.1,0.5,0.1,1,0.1,1.6c0,1.2-0.3,2.4-0.7,3.5c-0.8,1.9-2.1,3.5-3.7,4.8c-1.3,1-2.8,1.9-4.3,2.6c-1.5,0.7-3.2,1.2-4.9,1.6c-2.4,0.5-5,0.8-7.6,0.8h-6.6v-19h10.5c3.9,0,7.3,0.7,9.9,2.1c1.5,0.8,2.9,1.8,4.1,3c0.4,0.4,0.8,0.9,1.1,1.4c0.8,1.2,1.5,2.5,1.9,3.9c0.3,0.7,0.4,1.5,0.4,2.3c0,1,0.2,1.9,0.5,2.8c0.6,1.5,1.8,2.8,3.3,3.5c-0.6-0.8-1.1-1.7-1.4-2.8c-0.4-1.5-0.7-3-0.7-4.7C35.2,23,35.2,21.8,35.2,20.6z" fill="#ffffff"/>
  <path d="M30.4,26.2c-0.8,1.9-2.1,3.5-3.7,4.8c-1.3,1-2.8,1.9-4.3,2.6c-1.5,0.7-3.2,1.2-4.9,1.6c-2.4,0.5-5,0.8-7.6,0.8h-6.6v-19h10.5c3.9,0,7.3,0.7,9.9,2.1c1.5,0.8,2.9,1.8,4.1,3c0.4,0.4,0.8,0.9,1.1,1.4c0.8,1.2,1.5,2.5,1.9,3.9c0.3,0.7,0.4,1.5,0.4,2.3c0,1,0.2,1.9,0.5,2.8c0.6,1.5,1.8,2.8,3.3,3.5c-0.1-0.1-0.2-0.3-0.3-0.4c-1.2-1.7-2-3.7-2.3-5.8c-0.1-0.5-0.1-1-0.1-1.5c0-1.2,0.2-2.4,0.5-3.5c-0.3,0.1-0.6,0.3-0.9,0.5c-1,0.6-1.8,1.6-2.1,2.7c-0.1,0.5-0.2,1-0.2,1.5c0,1,0.2,2,0.7,2.8c-0.1-0.5-0.1-1-0.1-1.5c0-0.7,0.1-1.4,0.3-2.1c0.4-1.4,1.3-2.7,2.6-3.5c0.4-0.3,0.8-0.5,1.3-0.6c-0.4-1.5-1.1-2.8-2.1-4c-0.3-0.4-0.7-0.8-1.1-1.1c0.4,0.3,0.8,0.7,1.1,1.1c0.8,1,1.3,2.2,1.4,3.5c0.1,0.5,0.1,1,0.1,1.6c0,1.2-0.3,2.4-0.7,3.5H30.4z" fill="#ffffff"/>
  <path d="M35.2,20.6c0,1.2,0,2.4,0,3.6c0,1.6,0.2,3.2,0.7,4.7c0.3,1,0.7,2,1.4,2.8c1.7,0.8,3.7,0.3,4.9-1.1c1-1.2,1.6-2.8,1.6-4.5c0-3.8-2.8-7-6.5-7.5c0.1,0.4,0.1,0.8,0.1,1.2c1,0.2,1.8,0.7,2.5,1.4c1.3,1.3,1.9,3.2,1.4,5c-0.4,1.8-1.9,3.3-3.7,3.7c-0.4,0.1-0.8,0.1-1.2,0.1c-1,0-1.9-0.3-2.7-0.7c-0.2,0.3-0.4,0.6-0.7,0.9c1,0.6,2.2,0.9,3.4,0.9c0.4,0,0.9,0,1.3-0.1c2.4-0.5,4.4-2.4,4.9-4.9c0.7-3.2-1.3-6.4-4.4-7.4c-0.3-1.3-0.8-2.5-1.6-3.5c-0.3-0.4-0.7-0.8-1.1-1.1c0.4,0.2,0.7,0.4,1,0.7c1.3,1,2.3,2.5,2.6,4.3C35.2,19.8,35.2,20.2,35.2,20.6z" fill="#ffffff"/>
  <path d="M32.4,32.6c-0.1-0.1-0.2-0.3-0.3-0.4c-1.2-1.7-2-3.7-2.3-5.8c-0.1-0.5-0.1-1-0.1-1.5c0-1.2,0.2-2.4,0.5-3.5c-0.3,0.1-0.6,0.3-0.9,0.5c-1,0.6-1.8,1.6-2.1,2.7c-0.1,0.5-0.2,1-0.2,1.5c0,1,0.2,2,0.7,2.8c-0.1-0.5-0.1-1-0.1-1.5c0-0.7,0.1-1.4,0.3-2.1c0.4-1.4,1.3-2.7,2.6-3.5c0.4-0.3,0.8-0.5,1.3-0.6c-0.4-1.5-1.1-2.8-2.1-4c-0.3-0.4-0.7-0.8-1.1-1.1c-1.1-1-2.5-1.6-4.2-1.6c-1.9,0-3.4,0.8-4.5,2c-1,1.3-1.6,2.9-1.6,4.6c0,2.6,1.4,4.8,3.5,6c1,0.6,2.2,0.9,3.5,0.9c1.3,0,2.5-0.3,3.5-0.9c2.1-1.2,3.5-3.4,3.5-6c0-0.4,0-0.8-0.1-1.2c-0.3-1.8-1.3-3.3-2.6-4.3c-0.3-0.3-0.6-0.5-1-0.7c0.4,0.3,0.8,0.7,1.1,1.1c1,1.2,1.7,2.6,2.1,4c0.5,0.1,1,0.3,1.4,0.6c1.2,0.8,2.1,2,2.5,3.4c0.2,0.7,0.3,1.4,0.3,2.1c0,0.5,0,1-0.1,1.5c0.4-0.8,0.7-1.8,0.7-2.8c0-0.5-0.1-1-0.2-1.5c-0.4-1.1-1.2-2.1-2.3-2.7c-0.3-0.2-0.6-0.3-0.9-0.4c0.3,1.1,0.5,2.3,0.5,3.5c0,0.5,0,1-0.1,1.5c-0.3,2.1-1.1,4.1-2.3,5.8c-0.1,0.1-0.2,0.3-0.3,0.4c1.5-0.7,2.7-2,3.3-3.5c0.3-0.9,0.5-1.8,0.5-2.8c0-0.8-0.2-1.6-0.4-2.3c-0.4-1.4-1.1-2.7-1.9-3.9c-0.3-0.5-0.7-1-1.1-1.4c-1.2-1.3-2.6-2.3-4.1-3c-2.7-1.4-6-2.1-9.9-2.1H3.4v19h6.6c2.6,0,5.1-0.2,7.6-0.8c1.7-0.3,3.3-0.9,4.9-1.6c1.6-0.7,3.1-1.6,4.3-2.6c1.6-1.3,2.9-2.9,3.7-4.8h0.7c0.5,1.1,0.8,2.3,0.8,3.6c0,2.6-1.1,5-2.9,6.6c0.5-0.1,1-0.3,1.4-0.5c0.5-0.3,1-0.7,1.5-1.1C32.2,34.5,32.4,33.6,32.4,32.6z M35.1,25.3c0,0.5,0,1-0.1,1.5c-0.1,1-0.3,2-0.7,2.9c0.2-0.3,0.4-0.6,0.7-0.9c0.8-1.6,0.8-3.6-0.1-5.1c-0.5-0.9-1.3-1.7-2.3-2.1c-0.1,1.1-0.4,2.2-0.7,3.2c0.3-0.1,0.6-0.1,0.9-0.1c0.7,0,1.4,0.2,1.9,0.5C35,24.6,35.1,24.9,35.1,25.3z" fill="#ffffff"/>
  <path d="M33.2,28.6c-0.2,0.3-0.4,0.6-0.7,0.9c-0.5,0.5-1.2,0.9-1.9,1.1c-0.7,0.2-1.5,0.2-2.2,0c-1.4-0.4-2.5-1.6-3-3c-0.2-0.7-0.3-1.5-0.3-2.2c0-0.7,0.1-1.3,0.2-2c0.3-1.1,1-2.1,2.1-2.7c0.3-0.2,0.6-0.3,0.9-0.5c-0.3,1.1-0.5,2.3-0.5,3.5c0,0.5,0,1,0.1,1.5c0.3,2.1,1.1,4.1,2.3,5.8c0.1,0.1,0.2,0.3,0.3,0.4C30.9,30.7,31.9,29.8,33.2,28.6z" fill="#ffffff"/>
  <path d="M35.1,25.3c0-0.3-0.1-0.7-0.3-1c-0.5-0.3-1.2-0.5-1.9-0.5c-0.3,0-0.6,0-0.9,0.1c0.4-1,0.6-2.1,0.7-3.2c1,0.4,1.7,1.2,2.3,2.1C35.9,23.7,35.9,24.7,35.1,25.3z" fill="#ffffff"/>
  <path d="M38.3,17c-0.8-2.1-2.7-3.6-5-3.6c-2.3,0-4.3,1.5-5,3.6c-0.3,0.9-0.5,1.9-0.5,2.9c0,0.6,0.1,1.2,0.2,1.8c0.7,2.7,2.4,5,4.9,6.3c1.3,0.7,2.8,1.1,4.4,1.1c3.6,0,6.7-2,8.3-5c0.7-1.2,1-2.7,1-4.2C46.5,15,42.9,11.1,38.3,17z M29.3,20.6c0-2.9,2.3-5.2,5.2-5.2c2.9,0,5.2,2.3,5.2,5.2c0,2.9-2.3,5.2-5.2,5.2C31.7,25.8,29.3,23.5,29.3,20.6z" fill="#ffffff"/>
  <path d="M61.1,13.8h7.7c2.9,0,5.2,1,6.8,3c1.6,2,2.4,4.4,2.4,7.1v0.2c0,2.7-0.8,5-2.4,7.1c-1.6,2-3.9,3-6.8,3h-7.7V13.8z M68.8,29.8c3.4,0,5.8-2.2,5.8-5.6v-0.2c0-3.4-2.4-5.6-5.8-5.6h-2.4v11.5h2.4V29.8z" fill="#ffffff"/>
  <path d="M92.2,13.6h5.2l8.5,20.4h-5.6l-1.8-4.5H92l-1.8,4.5H85L92.2,13.6z M97,25.1L94.7,19l-2.3,6.1H97z" fill="#ffffff"/>
  <path d="M119.6,13.6h5.1l6.7,9.6V13.6h5.2v20.4h-4.7l-7-10v10h-5.2V13.6H119.6z" fill="#ffffff"/>
  <path d="M147.7,13.6h9c2.6,0,4.6,0.7,5.9,2.1c1.1,1.1,1.7,2.7,1.7,4.5v0.1c0,3.2-1.7,5.1-4.2,6.1l4.8,7.6h-6l-4.2-6.7h-1.9v6.7h-5.3V13.6H147.7z M156.5,22.7c2.1,0,3.3-1.1,3.3-2.7v-0.1c0-1.8-1.3-2.7-3.4-2.7h-3.4v5.5H156.5z" fill="#ffffff"/>
  <path d="M175.6,13.6h5.3v8.1l7.5-8.1h6.3l-7.6,7.9l7.9,12.6h-6.2l-5.4-8.7l-2.6,2.7v6h-5.3V13.6z" fill="#ffffff"/>
</svg> 