<svg width="128" height="38" viewBox="0 0 140 40" xmlns="http://www.w3.org/2000/svg">
  <rect width="19" height="19" x="10" y="10" fill="#ffffff"/>
  <rect width="19" height="19" x="32" y="10" fill="#ffffff"/>
  <rect width="19" height="19" x="10" y="32" fill="#ffffff"/>
  <rect width="19" height="19" x="32" y="32" fill="#ffffff"/>
  <path d="M71 16.3v-5.8h3.1c.8 0 1.5.1 2 .4s1 .6 1.3 1.1.4 1 .4 1.7c0 .6-.1 1.2-.4 1.6-.2.5-.6.8-1.1 1.1-.5.3-1.1.4-1.8.4H71zm1.3-1.1h1.8c.5 0 1-.1 1.3-.3s.6-.4.7-.7.2-.7.2-1.1c0-.7-.2-1.2-.6-1.5s-1-.5-1.7-.5h-1.7v4.1zM85.8 16.3h-5V10.5h5v1.1h-3.7v1.2h3.2v1.1h-3.2v1.3h3.7v1.1zM100.5 16.3h-1.4l-5-4.6v4.6h-1.3v-5.8h1.4l5 4.6v-4.6h1.3v5.8zM106.9 16.3v-5.8h1.3v5.8h-1.3zM113.8 16.4c-.7 0-1.3-.2-1.8-.5s-.9-.7-1.2-1.3-.4-1.1-.4-1.8.1-1.3.4-1.8.7-1 1.2-1.2 1.1-.5 1.8-.5 1.3.2 1.8.5.9.7 1.2 1.3.4 1.1.4 1.8-.1 1.3-.4 1.8-.7 1-1.2 1.2-1.2.5-1.8.5zm0-1.1c.5 0 .9-.1 1.2-.3s.5-.5.7-.9.2-.8.2-1.3-.1-.9-.2-1.3-.4-.7-.7-.9-.7-.3-1.2-.3-.9.1-1.2.3-.5.5-.7.9-.2.8-.2 1.3.1.9.2 1.3.4.7.7.9.8.3 1.2.3zM126.7 16.3l-2.1-4.4-2.1 4.4h-1.5l3-5.8h1.2l3 5.8h-1.5zM71 29.6l-2.6-8.4h2.3l1.5 5.5 1.5-5.5h1.9l1.5 5.5 1.5-5.5h2.2l-2.5 8.4h-2.1L75 24.1l-1.9 5.5H71zM88.3 29.8c-1.2 0-2.2-.4-3-1.1s-1.2-1.7-1.2-3 .4-2.2 1.1-3 1.7-1.1 2.9-1.1 2.2.3 2.9 1 1.1 1.6 1.1 2.9v.8h-6c0 .7.3 1.3.7 1.7s1 .6 1.7.6c.5 0 .9-.1 1.3-.2s.8-.4 1.2-.7v1.7c-.4.3-.8.5-1.2.6s-1 .2-1.5.2zm-.2-6.7c-.5 0-1 .2-1.3.5s-.5.8-.6 1.4h3.7c0-.6-.2-1.1-.5-1.4s-.7-.5-1.3-.5zM99.1 29.6h-2v-4.9c0-.9-.3-1.4-1-1.4-.5 0-.9.2-1.2.6s-.4 1-.4 1.8v3.9h-2v-8.3h1.5l.3 1h.1c.2-.4.5-.7.9-.9s.8-.3 1.3-.3c.8 0 1.5.2 1.9.7s.7 1.2.7 2.1v5.7zM109.5 29.6h-2v-4.9c0-.9-.3-1.4-1-1.4-.5 0-.9.2-1.2.6s-.4 1-.4 1.8v3.9h-2v-8.3h1.5l.3 1h.1c.2-.4.5-.7.9-.9s.8-.3 1.3-.3c.8 0 1.5.2 1.9.7s.7 1.2.7 2.1v5.7z" fill="#ffffff"/>
</svg> 